<?xml version="1.0" standalone="no"?>
<!DOCTYPE svg PUBLIC "-//W3C//DTD SVG 20010904//EN"
 "http://www.w3.org/TR/2001/REC-SVG-20010904/DTD/svg10.dtd">
<svg version="1.0" xmlns="http://www.w3.org/2000/svg"
 width="260.000000pt" height="260.000000pt" viewBox="0 0 260.000000 260.000000"
 preserveAspectRatio="xMidYMid meet">
<metadata>
Created by potrace 1.11, written by Peter Selinger 2001-2013
</metadata>
<g transform="translate(0.000000,260.000000) scale(0.100000,-0.100000)"
fill="#000000" stroke="none">
<path d="M0 2258 c0 -188 2 -339 4 -337 2 2 6 31 8 64 4 52 20 105 33 105 2 0
3 -33 1 -72 -1 -40 0 -65 2 -55 2 9 7 17 10 17 4 0 5 25 4 55 -2 30 0 55 5 55
4 0 8 -29 8 -64 0 -35 -3 -62 -7 -60 -9 6 -21 -93 -13 -106 3 -5 2 -10 -4 -10
-5 0 -12 12 -14 28 l-4 27 -2 -28 c-1 -35 24 -66 33 -41 3 9 6 38 6 65 0 27 5
49 10 49 6 0 10 -15 10 -32 0 -25 3 -29 10 -18 8 12 10 10 10 -8 0 -13 -4 -21
-9 -18 -5 3 -12 -1 -15 -10 -3 -8 -2 -12 4 -9 6 3 14 4 20 0 11 -7 2 -35 -12
-35 -5 0 -6 5 -3 10 3 6 2 10 -2 10 -8 0 -37 -90 -31 -95 2 -2 13 1 25 6 15 5
21 14 18 29 -2 11 0 18 6 15 5 -4 9 2 9 11 0 16 2 16 19 -2 10 -10 17 -27 15
-36 -5 -28 5 -21 20 15 l13 32 1 -43 c0 -23 -3 -40 -7 -38 -4 3 -8 -8 -9 -25
-1 -25 3 -29 16 -24 14 5 15 4 4 -6 -13 -14 -16 -30 -4 -28 30 5 34 -3 12 -26
-19 -21 -21 -25 -7 -25 9 0 17 -7 17 -15 0 -9 -9 -15 -22 -15 -19 0 -20 -2 -8
-10 8 -5 15 -21 15 -35 1 -14 7 -30 15 -35 11 -7 11 -10 2 -10 -8 0 -10 -8 -7
-23 4 -12 1 -36 -5 -52 -6 -17 -7 -25 -2 -20 5 6 19 39 32 75 32 89 69 162 79
156 16 -10 -2 -101 -30 -147 -15 -26 -30 -69 -33 -96 -4 -34 -3 -42 3 -28 8
17 10 17 10 3 1 -9 6 -29 13 -43 10 -21 18 -25 57 -25 45 -1 45 -1 21 -15 -14
-7 -35 -11 -47 -8 -23 5 -22 6 -38 -70 -6 -29 5 -68 16 -61 5 3 9 -9 9 -27 0
-27 2 -30 15 -19 9 7 17 11 19 9 9 -9 -16 -107 -39 -155 -35 -72 -19 -105 33
-68 12 8 31 13 41 9 26 -8 16 -40 -23 -82 -25 -27 -32 -30 -39 -18 -4 8 -12
15 -16 15 -9 0 -3 -89 9 -139 8 -29 6 -36 -14 -52 -16 -13 -27 -37 -36 -81
l-12 -63 -15 29 c-12 24 -15 56 -11 163 4 120 3 130 -9 96 -27 -77 -34 -142
-19 -162 8 -11 8 -13 -2 -7 -11 7 -18 -12 -13 -38 1 -5 4 -52 6 -105 2 -53 7
-109 11 -126 4 -16 8 -40 8 -52 1 -13 3 -23 6 -23 3 0 6 -13 7 -28 1 -15 9
-41 17 -57 15 -29 11 -59 -5 -34 -7 12 -9 11 -10 -1 0 -8 -2 -25 -5 -37 -2
-13 1 -23 7 -23 6 0 9 9 6 20 -3 11 -2 20 3 20 13 0 19 -27 8 -38 -5 -5 -7
-19 -3 -31 l6 -21 1190 0 1189 0 0 474 0 474 -92 1 c-50 0 -96 -3 -102 -8 -6
-5 -47 -12 -91 -15 -44 -3 -105 -14 -135 -25 -30 -10 -78 -21 -106 -25 -51 -6
-51 -6 -58 25 -11 56 -8 69 17 69 12 0 50 7 82 16 33 9 105 20 160 25 89 8
102 7 131 -10 18 -11 35 -17 38 -13 12 11 41 15 99 14 l57 -1 0 799 0 800
-946 0 c-927 0 -945 0 -939 -19 3 -11 0 -23 -6 -27 -7 -4 -9 -3 -6 4 4 5 4 17
1 26 -5 13 -22 16 -79 16 -49 0 -75 -4 -78 -12 -4 -10 -6 -10 -6 0 -1 9 -52
12 -221 12 -226 0 -226 0 -220 -39 1 -8 -4 -12 -14 -8 -8 3 -17 1 -20 -6 -2
-7 -5 3 -5 21 -1 29 -4 32 -31 32 l-30 0 0 -342z m506 299 c1 -7 4 -24 7 -40
4 -16 2 -25 -4 -22 -5 4 -7 11 -4 16 4 5 2 9 -3 9 -4 0 -8 13 -8 30 0 28 8 33
12 7z m191 -47 c-2 -24 -12 -26 -21 -5 -3 8 -1 15 5 15 6 0 7 5 3 12 -4 6 -3
8 4 4 6 -3 10 -15 9 -26z m70 -7 c-3 -10 -5 -4 -5 12 0 17 2 24 5 18 2 -7 2
-21 0 -30z m-649 -78 c-3 -3 -9 2 -12 12 -6 14 -5 15 5 6 7 -7 10 -15 7 -18z
m364 -27 c-6 -6 -7 0 -4 19 5 21 7 23 10 9 2 -10 0 -22 -6 -28z m58 -27 c0
-10 -8 -25 -17 -32 -16 -13 -17 -12 -4 3 7 10 11 25 7 33 -3 8 -1 15 4 15 6 0
10 -8 10 -19z m-426 -44 c3 -21 8 -42 11 -47 3 -5 -1 -24 -9 -42 l-15 -33 5
30 c3 24 3 26 -5 10 -12 -25 -14 -98 -3 -91 4 2 8 -7 9 -22 2 -63 4 -73 13
-67 5 3 10 -1 10 -9 0 -8 -5 -18 -12 -22 -7 -4 -8 -3 -4 4 4 8 2 10 -7 6 -11
-4 -16 10 -21 63 -11 108 -9 203 5 203 4 0 7 6 6 13 -2 57 10 60 17 4z m500
17 c3 -8 2 -12 -4 -9 -6 3 -10 10 -10 16 0 14 7 11 14 -7z m193 -16 c-3 -8 -6
-5 -6 6 -1 11 2 17 5 13 3 -3 4 -12 1 -19z m-192 -18 c3 -5 1 -10 -4 -10 -6 0
-11 5 -11 10 0 6 2 10 4 10 3 0 8 -4 11 -10z m-99 -92 c2 -24 5 -50 6 -58 0
-8 0 -31 -1 -50 -2 -29 -4 -32 -11 -15 -7 16 -9 14 -9 -15 -1 -23 -4 -30 -10
-22 -6 11 -10 10 -16 -5 -13 -29 -14 -43 -5 -48 11 -7 2 -35 -11 -35 -5 0 -9
30 -9 68 0 42 4 62 9 53 15 -23 34 25 27 68 -5 26 -4 32 3 21 8 -11 11 -1 11
39 0 63 10 62 16 -1z m-469 -20 c-3 -7 -5 -2 -5 12 0 14 2 19 5 13 2 -7 2 -19
0 -25z m563 11 c0 -6 -4 -7 -10 -4 -5 3 -10 11 -10 16 0 6 5 7 10 4 6 -3 10
-11 10 -16z m3 -136 c17 -32 14 -63 -5 -63 -6 0 -5 6 2 15 9 11 9 15 1 15 -7
0 -9 4 -6 10 3 5 1 18 -4 27 -10 17 -10 16 -11 -2 -1 -19 -2 -19 -9 -2 -4 10
-5 35 -2 55 l4 37 7 -30 c4 -16 14 -44 23 -62z m174 40 c-3 -10 -5 -2 -5 17 0
19 2 27 5 18 2 -10 2 -26 0 -35z m-733 -1 c3 -5 -1 -9 -9 -9 -8 0 -12 4 -9 9
3 4 7 8 9 8 2 0 6 -4 9 -8z m112 -7 c-3 -8 -1 -15 5 -15 6 0 5 -9 -2 -22 -7
-13 -12 -52 -10 -90 1 -38 -2 -68 -6 -68 -14 0 -15 137 -3 175 6 19 14 35 17
35 3 0 3 -7 -1 -15z m380 -32 c-3 -4 0 -13 7 -21 10 -13 9 -14 -3 -10 -9 2
-16 19 -18 39 -2 29 -1 31 9 16 6 -10 8 -21 5 -24z m127 -48 c4 -8 2 -17 -3
-20 -6 -4 -10 3 -10 14 0 25 6 27 13 6z m-576 -17 c-3 -8 -6 -5 -6 6 -1 11 2
17 5 13 3 -3 4 -12 1 -19z m394 -61 c-13 -13 -15 1 -4 30 7 17 8 17 11 -1 2
-10 -1 -23 -7 -29z m177 18 c0 -14 -1 -25 -2 -23 -1 2 -8 12 -16 22 -10 13
-10 17 -2 12 6 -4 12 -2 12 3 0 6 2 11 4 11 2 0 4 -11 4 -25z m285 -4 c2 -10
1 -25 -4 -32 -6 -10 -9 -4 -9 19 0 36 5 42 13 13z m-486 -43 c-3 -7 -5 -2 -5
12 0 14 2 19 5 13 2 -7 2 -19 0 -25z m-99 5 c-1 -5 6 -22 15 -40 9 -18 17 -38
17 -45 0 -7 -10 8 -23 32 -21 40 -24 60 -11 60 2 0 3 -3 2 -7z m59 -15 c-3 -8
-6 -5 -6 6 -1 11 2 17 5 13 3 -3 4 -12 1 -19z m68 -1 c1 -7 -4 -15 -9 -19 -6
-4 -5 -13 3 -22 19 -22 9 -20 -19 4 -18 16 -20 20 -7 20 11 0 17 8 17 22 0 21
15 17 15 -5z m-58 -39 c-3 -8 -6 -5 -6 6 -1 11 2 17 5 13 3 -3 4 -12 1 -19z
m-297 -18 c0 -5 -6 -12 -12 -16 -7 -4 -10 -4 -6 1 4 4 3 14 -4 22 -8 11 -7 12
6 7 9 -3 16 -10 16 -14z m100 -15 c0 -5 -5 -3 -10 5 -5 8 -10 20 -10 25 0 6 5
3 10 -5 5 -8 10 -19 10 -25z m140 -32 c0 -25 -15 -12 -17 14 -1 19 1 22 8 12
5 -8 9 -20 9 -26z m127 -19 c-3 -3 -12 -4 -19 -1 -8 3 -5 6 6 6 11 1 17 -2 13
-5z m65 -16 c-7 -7 -12 -8 -12 -2 0 14 12 26 19 19 2 -3 -1 -11 -7 -17z m-288
-43 c-6 -14 -8 -14 -20 2 -7 10 -14 27 -14 37 0 19 1 19 20 -2 11 -12 17 -28
14 -37z m98 23 c-4 -26 -6 -27 -17 -11 -15 20 -10 40 8 40 9 0 12 -10 9 -29z
m168 -64 c-5 -32 -15 -99 -21 -149 -12 -89 -12 -90 -25 -55 -14 40 -18 90 -6
90 10 0 34 83 36 125 0 18 4 31 9 28 4 -2 7 4 7 13 0 10 2 15 5 13 2 -3 0 -32
-5 -65z m-24 10 c1 -9 0 -13 -4 -10 -3 4 -7 14 -8 22 -1 9 0 13 4 10 3 -4 7
-14 8 -22z m-86 -59 c0 -8 -3 -16 -7 -18 -5 -3 -8 5 -8 18 0 13 3 21 8 18 4
-2 7 -10 7 -18z m-107 -140 c-3 -9 -8 -14 -10 -11 -3 3 -2 9 2 15 9 16 15 13
8 -4z m682 -75 c3 -5 1 -10 -4 -10 -6 0 -11 5 -11 10 0 6 2 10 4 10 3 0 8 -4
11 -10z m26 -13 c-10 -9 -11 -8 -5 6 3 10 9 15 12 12 3 -3 0 -11 -7 -18z
m-729 -89 c-7 -7 -12 -8 -12 -2 0 14 12 26 19 19 2 -3 -1 -11 -7 -17z m229 -1
c-6 -8 -7 -18 -3 -22 4 -5 2 -5 -5 -1 -13 7 -48 -48 -39 -62 2 -4 -2 -18 -10
-32 -10 -19 -13 -21 -14 -7 0 26 28 89 52 114 23 25 38 32 19 10z m724 -107
c0 -13 6 -25 13 -28 6 -2 12 -8 12 -14 0 -6 -9 -3 -20 7 -12 10 -18 25 -16 32
3 7 1 13 -4 13 -6 0 -10 5 -10 11 0 6 6 9 13 6 6 -2 12 -14 12 -27z m-774 -67
c-12 -20 -14 -14 -5 12 4 9 9 14 11 11 3 -2 0 -13 -6 -23z m834 -141 c-3 -3
-11 0 -18 7 -9 10 -8 11 6 5 10 -3 15 -9 12 -12z m5 -26 c0 -2 -7 -7 -16 -10
-8 -3 -12 -2 -9 4 6 10 25 14 25 6z m240 -227 c0 -5 -4 -9 -8 -9 -5 0 -9 7 -9
15 0 8 4 12 9 9 4 -3 8 -9 8 -15z m-256 -27 c2 -4 -4 -8 -14 -8 -10 0 -16 4
-14 8 3 4 9 8 14 8 5 0 11 -4 14 -8z m110 0 c3 -5 -1 -9 -9 -9 -8 0 -12 4 -9
9 3 4 7 8 9 8 2 0 6 -4 9 -8z m-34 -16 c0 -3 -4 -8 -10 -11 -5 -3 -10 -1 -10
4 0 6 5 11 10 11 6 0 10 -2 10 -4z m48 -41 c-3 -3 -9 2 -12 12 -6 14 -5 15 5
6 7 -7 10 -15 7 -18z m-978 -275 c0 -11 -2 -20 -4 -20 -2 0 -6 9 -9 20 -3 11
-1 20 4 20 5 0 9 -9 9 -20z m-123 -127 c-3 -10 -5 -4 -5 12 0 17 2 24 5 18 2
-7 2 -21 0 -30z"/>
<path d="M32 1759 c-1 -40 0 -70 2 -68 8 8 13 118 6 129 -4 6 -8 -21 -8 -61z"/>
<path d="M6 1801 c-4 -5 -6 -69 -5 -143 1 -126 2 -131 16 -99 9 22 12 47 8 65
-4 17 -8 66 -9 108 0 43 -2 78 -3 78 -1 0 -4 -4 -7 -9z"/>
<path d="M100 1730 c0 -7 -7 -10 -15 -6 -20 7 -19 -11 1 -22 9 -5 15 -12 14
-15 -1 -4 2 -28 6 -53 4 -31 9 -42 15 -33 5 8 9 10 9 4 0 -5 -5 -17 -10 -25
-6 -10 -10 -11 -10 -2 0 6 -5 12 -10 12 -11 0 -3 -49 11 -64 4 -5 4 -19 -1
-32 -7 -18 -6 -22 5 -17 8 3 12 9 9 14 -3 5 -1 9 3 9 5 0 8 16 7 35 -1 19 2
33 6 30 11 -7 31 20 33 44 1 12 7 21 14 21 7 0 13 5 13 11 0 5 -4 8 -9 4 -6
-3 -14 2 -19 10 -5 9 -21 24 -36 34 -23 15 -25 19 -11 25 9 3 13 2 10 -3 -3
-5 0 -13 6 -16 7 -5 9 1 7 16 -3 25 -48 42 -48 19z"/>
<path d="M57 1675 c3 -8 9 -12 14 -9 12 7 11 11 -5 17 -10 4 -13 1 -9 -8z"/>
<path d="M2 1278 c0 -289 14 -261 19 40 3 152 1 202 -8 202 -9 0 -12 -61 -11
-242z"/>
<path d="M146 1494 c-8 -22 -8 -69 1 -60 7 6 13 76 7 76 -1 0 -5 -7 -8 -16z"/>
<path d="M137 1399 c-9 -6 -14 -15 -11 -21 4 -7 7 -31 8 -54 0 -24 4 -40 9
-37 6 3 8 -7 5 -25 -2 -17 0 -33 6 -35 13 -5 16 97 3 109 -4 5 -5 0 -2 -11 5
-15 4 -17 -3 -6 -11 15 -5 44 7 36 4 -2 5 9 3 26 -2 16 -5 29 -6 29 0 0 -9 -5
-19 -11z"/>
<path d="M196 1355 c4 -11 6 -24 6 -30 -1 -5 -2 -34 -2 -62 -1 -29 -5 -51 -9
-49 -3 2 -5 -17 -5 -42 1 -26 -2 -66 -8 -88 -8 -34 -7 -47 6 -67 12 -18 14
-30 7 -48 -10 -24 -10 -24 -10 -1 -1 12 -6 22 -12 22 -7 0 -8 -7 -4 -17 4 -10
9 -30 10 -45 2 -14 11 -40 21 -57 16 -27 20 -29 25 -14 4 10 2 24 -3 31 -7 8
-6 17 3 29 12 15 12 16 -3 10 -15 -5 -18 -1 -17 21 0 24 1 25 9 7 7 -15 9 -10
8 23 -1 23 -7 42 -12 42 -7 0 -8 3 -1 8 12 8 14 72 3 72 -5 0 -8 8 -8 18 0 13
2 14 9 4 10 -17 23 40 15 63 -4 8 -1 15 6 15 7 0 9 7 6 15 -3 8 -9 23 -12 33
-5 15 -4 15 6 2 17 -22 3 35 -21 85 -11 22 -16 31 -13 20z m-9 -317 c-3 -7 -5
-2 -5 12 0 14 2 19 5 13 2 -7 2 -19 0 -25z"/>
<path d="M1 475 c0 -294 3 -475 8 -470 24 24 28 680 6 850 -11 92 -12 60 -14
-380z"/>
<path d="M148 912 c-3 -11 0 -19 7 -19 7 0 10 8 7 19 -2 10 -6 18 -7 18 -1 0
-5 -8 -7 -18z"/>
<path d="M87 913 c-8 -13 19 -63 34 -63 5 0 9 -9 9 -21 0 -11 -4 -17 -10 -14
-14 9 -12 -8 3 -24 10 -11 9 -13 -4 -8 -14 5 -15 1 -3 -31 7 -21 14 -50 14
-67 1 -25 7 -18 39 50 21 44 36 84 33 89 -2 4 -8 2 -13 -5 -6 -10 -8 -6 -7 11
2 19 -1 24 -15 22 -9 -2 -20 4 -23 12 -3 8 -11 13 -18 10 -6 -2 -16 8 -22 23
-6 19 -12 24 -17 16z m72 -138 c0 -25 -2 -27 -8 -10 -5 11 -7 23 -4 28 2 4 0
7 -5 7 -6 0 -8 10 -4 22 5 21 6 21 13 2 4 -10 8 -32 8 -49z"/>
<path d="M82 725 c0 -16 2 -22 5 -12 2 9 2 23 0 30 -3 6 -5 -1 -5 -18z"/>
<path d="M101 734 c0 -11 3 -14 6 -6 3 7 2 16 -1 19 -3 4 -6 -2 -5 -13z"/>
<path d="M111 662 c-1 -13 -6 -33 -12 -45 -9 -20 -9 -21 4 -4 11 14 16 15 20
5 9 -21 6 13 -3 42 -8 25 -8 25 -9 2z"/>
<path d="M111 584 c0 -11 3 -14 6 -6 3 7 2 16 -1 19 -3 4 -6 -2 -5 -13z"/>
<path d="M160 141 c0 -6 5 -13 10 -16 6 -4 8 -11 5 -16 -4 -5 -1 -9 5 -9 7 0
9 7 6 16 -3 9 -6 20 -6 25 0 5 -4 9 -10 9 -5 0 -10 -4 -10 -9z"/>
<path d="M154 101 c3 -13 0 -33 -6 -44 -8 -15 -7 -18 3 -12 9 6 11 2 6 -16 -6
-23 -6 -23 9 -4 8 11 10 21 5 23 -5 2 -8 9 -5 16 3 7 0 23 -6 37 l-11 24 5
-24z"/>
<path d="M176 15 c-3 -9 0 -15 9 -15 16 0 20 16 6 24 -5 3 -11 -1 -15 -9z"/>
</g>
</svg>
